# xmcd
#
# Track frame offsets: 
#        150
#        11363
#        25975
#        33548
#        51982
#        61992
#        73687
#        88177
#        96885
#        109548
#        127865
#        139312
#        152776
#        168995
#        188886
#        207757
#        223321
#        234208
#        251094
#        269702
#        285070
#        300492
#        318310
#        335687
#
# Disc length: 4649 seconds
#
# Revision: 0
# Processed by: cddbd v1.5.2PL0 Copyright (c) Steve Scherf et al.
# Submitted via: ExactAudioCopyFreeDBPlugin 1.0
#
DISCID=5a122718
DTITLE=The Oak Ridge Boys - When I Sing For Him: The Complete Columbia
DTITLE=Recordings and RCA Singles
DYEAR=2018
DGENRE=Country
TTITLE0=Lord I've Been Ready For Years
TTITLE1=No Earthly Good
TTITLE2=Jesus Knows Who I Am
TTITLE3=The Same Old Fashioned Way
TTITLE4=I'm Winging My Way Back Home
TTITLE5=Where The Soul Never Dies
TTITLE6=It's Been Done
TTITLE7=Doctor God
TTITLE8=Jesus Was There
TTITLE9=Last Train To Glory
TTITLE10=Family Reunion
TTITLE11=Don't Be Late
TTITLE12=All Our Favorite Songs
TTITLE13=Whoever Finds This, I Love You
TTITLE14=(You're My) Soul And Inspiration
TTITLE15=Lucky Moon
TTITLE16=Walkin' After Midnight
TTITLE17=Change My Mind
TTITLE18=Our Love Is Here To Stay
TTITLE19=Baby On Board
TTITLE20=When It Comes To You
TTITLE21=Fall
TTITLE22=Until You're Back In My Arms Again
TTITLE23=Go Tell It On The Mountain
EXTD=
EXTT0=
EXTT1=
EXTT2=
EXTT3=
EXTT4=
EXTT5=
EXTT6=
EXTT7=
EXTT8=
EXTT9=
EXTT10=
EXTT11=
EXTT12=
EXTT13=
EXTT14=
EXTT15=
EXTT16=
EXTT17=
EXTT18=
EXTT19=
EXTT20=
EXTT21=
EXTT22=
EXTT23=
PLAYORDER=
